# ProBuilder 4.5.2
# https://unity3d.com/unity/features/worldbuilding/probuilder
# 1/02/2024 11:09:33 PM

mtllib ./TropicalBigBody.mtl
o TropicalBigBody

g TropicalBigOverlay
v 1 -3 3
v -1 -3 3
v 1 3 3
v -1 3 3
v -1 -3 -3
v -1 3 -3
v 1 -3 -3
v 1 3 -3
v 0 -6 -3
v 0 -6 2
v 0 -3 -3
v 0 -3 2
v 2.414213 -3 -1.414214
v 1 -3 0
v 2.414213 -1 -1.414214
v 1 -1 0
v 0 3 -3
v 0 3 2
v 0 6 -3
v 0 6 2
v -2.414211 -3 -1.414217
v -1 -3 0
v -2.414211 -1 -1.414217
v -1 -1 0

vt 0.25 0
vt 0.1875 0
vt 0.25 0.1875
vt 0.1875 0.1875
vt 0.1875 1.721084E-06
vt 0 1.184642E-06
vt 0.1875 0.1875017
vt 0 0.1875012
vt 0.5 0
vt 0.4375 0
vt 0.5 0.1875
vt 0.4375 0.1875
vt 0.4375 3.024936E-06
vt 0.25 3.188848E-06
vt 0.25 0.1875032
vt 0.1875 0.375
vt 0.25 0.375
vt 0.3125 0.1875
vt 0.3125 0.3750002
vt 0.625 0.06249999
vt 0.78125 0.06249999
vt 0.625 0.15625
vt 0.78125 0.15625
vt 0.125 0.5625
vt 0.0625 0.5625
vt 0.125 0.625
vt 0.06250001 0.625
vt 0.625 0.3437478
vt 0.78125 0.3437476
vt 0.625 0.4374978
vt 0.78125 0.4374976
vt 0.0625 0.4375
vt 0.125 0.4375
vt 0.0625 0.5
vt 0.125 0.5

vn 0 0 1
vn -1 0 0
vn 0 0 -1
vn 1 0 0
vn 0 1 0
vn 0 -1 0
vn 0.7071071 0 0.7071065
vn -0.7071083 0 0.7071052

usemtl TropicalFlopper
f 3/3/1 4/4/1 2/2/1 1/1/1
f 4/7/2 6/8/2 5/6/2 2/5/2
f 6/11/3 8/12/3 7/10/3 5/9/3
f 8/12/4 3/15/4 1/14/4 7/13/4
f 8/7/5 6/15/5 4/17/5 3/16/5
f 1/19/6 2/17/6 5/15/6 7/18/6
f 11/22/4 12/23/4 10/21/4 9/20/4
f 15/26/7 16/27/7 14/25/7 13/24/7
f 19/30/4 20/31/4 18/29/4 17/28/4
f 21/32/8 22/33/8 24/35/8 23/34/8

g TropicalBigTailOverlay
v 0 -3 -8
v 0 -3 -3
v 0 3 -8
v 0 3 -3

vt 0.65625 0.1562495
vt 0.8125 0.15625
vt 0.65625 0.3437495
vt 0.8125 0.3437491

vn 1 0 0

usemtl TropicalFlopper
f 27/38/9 28/39/9 26/37/9 25/36/9

g TropicalBigTail
v 0 -3 -8
v 0 -3 -3
v 0 3 -8
v 0 3 -3

vt 0.65625 0.1562465
vt 0.8125 0.1562487
vt 0.65625 0.3437465
vt 0.8125 0.3437478

vn 1 0 0

usemtl TropicalBig
f 31/42/10 32/43/10 30/41/10 29/40/10

g TropicalBigBody
v 1 -3 3
v -1 -3 3
v 1 3 3
v -1 3 3
v -1 -3 -3
v -1 3 -3
v 1 -3 -3
v 1 3 -3
v 0 -6 -3
v 0 -6 2
v 0 -3 -3
v 0 -3 2
v 2.414213 -3 -1.414214
v 1 -3 0
v 2.414213 -1 -1.414214
v 1 -1 0
v 0 3 -3
v 0 3 2
v 0 6 -3
v 0 6 2
v -2.414211 -3 -1.414217
v -1 -3 0
v -2.414211 -1 -1.414217
v -1 -1 0

vt 0.25 0
vt 0.1875 0
vt 0.25 0.1875
vt 0.1875 0.1875
vt 0.1875 1.721084E-06
vt 0 1.184642E-06
vt 0.1875 0.1875017
vt 0 0.1875012
vt 0.5 0
vt 0.4375 0
vt 0.5 0.1875
vt 0.4375 0.1875
vt 0.4375 3.024936E-06
vt 0.25 3.188848E-06
vt 0.25 0.1875032
vt 0.1875 0.375
vt 0.25 0.375
vt 0.3125 0.1875
vt 0.3125 0.3750002
vt 0.625 0.06249626
vt 0.78125 0.06249461
vt 0.625 0.1562462
vt 0.78125 0.1562446
vt 0.125 0.5625
vt 0.0625 0.5625
vt 0.125 0.625
vt 0.06250001 0.625
vt 0.625 0.3437456
vt 0.78125 0.3437479
vt 0.625 0.4374956
vt 0.78125 0.4374979
vt 0.0625 0.4375
vt 0.125 0.4375
vt 0.0625 0.5
vt 0.125 0.5

vn 0 0 1
vn -1 0 0
vn 0 0 -1
vn 1 0 0
vn 0 1 0
vn 0 -1 0
vn 0.7071071 0 0.7071065
vn -0.7071083 0 0.7071052

usemtl TropicalBig
f 35/46/11 36/47/11 34/45/11 33/44/11
f 36/50/12 38/51/12 37/49/12 34/48/12
f 38/54/13 40/55/13 39/53/13 37/52/13
f 40/55/14 35/58/14 33/57/14 39/56/14
f 40/50/15 38/58/15 36/60/15 35/59/15
f 33/62/16 34/60/16 37/58/16 39/61/16
f 43/65/14 44/66/14 42/64/14 41/63/14
f 47/69/17 48/70/17 46/68/17 45/67/17
f 51/73/14 52/74/14 50/72/14 49/71/14
f 53/75/18 54/76/18 56/78/18 55/77/18

