# ProBuilder 4.5.2
# https://unity3d.com/unity/features/worldbuilding/probuilder
# 1/02/2024 9:06:00 PM

mtllib ./Fins.mtl
o Fins

g Fins
v 0 0 -2
v 0 0 0
v 0 1 -2
v 0 1 0
v 0.0001 1 -3
v 0.0001 0 -3
v 0.0002 1 -6
v 0.0002 0 -6
v 0.0003 -4 -5
v 0.0002 -4 -3
v 0.0004 -5 -5
v 0.0003 -5 -3

vt 0.875 0.96875
vt 0.8125 0.96875
vt 0.875 1
vt 0.8125 1
vt 0.90625 1
vt 0.90625 0.96875
vt 1 1
vt 1 0.96875
vt 0.15625 1
vt 0.09375 1
vt 0.15625 0.96875
vt 0.09375 0.96875

vn 1 0 0

usemtl Cod
f 3/3/1 4/4/1 2/2/1 1/1/1
f 8/8/1 7/7/1 5/5/1 6/6/1
f 12/12/1 11/11/1 9/9/1 10/10/1

