# ProBuilder 4.0.4
# https://unity3d.com/unity/features/worldbuilding/probuilder
# 6/01/2020 4:02:48 PM

mtllib ./VolumeLight.mtl
o VolumeLight

g VolumeLight
v -22.83646 -4.274123 111.2424
v -13.94789 3.675049 85.50138
v -22.83645 11.69531 111.2424
v -13.94789 3.746136 85.5338
v -13.7837 3.675049 85.81308
v -12.9563 3.675049 85.81308
v -13.7837 3.746136 85.8455
v -12.9563 3.746136 85.8455
v -12.79032 3.675049 85.50138
v -3.901746 -4.274123 111.2424
v -12.79032 3.746136 85.5338
v -3.90176 11.69531 111.2424
v -6.616747 11.69531 111.2424
v -20.15078 11.69531 111.2424
v -6.616747 -4.274123 111.2424
v -20.15079 -4.274123 111.2424

vt 27.38278 -128.9154
vt -0.5099962 -0.5000001
vt 27.38278 129.0638
vt -0.4800798 0.6483777
vt 0.4999995 -0.5148244
vt -0.4999999 -0.5148244
vt 0.4999995 0.6340107
vt -0.4999999 0.6340107
vt 0.5520383 -0.5091696
vt -27.31293 -128.9306
vt 0.5215942 0.6392621
vt -27.31292 129.0364
vt -8.162037 131.4418
vt 8.195304 131.4418
vt -0.4999999 0.5390511
vt 0.4999995 0.5390511
vt -0.4999999 -0.3870529
vt 0.4999995 -0.3870529
vt -8.162037 -131.2961
vt 8.195322 -131.2961
vt -0.7183048 -0.5144886
vt 16.5186 -130.5098
vt -1.088977 -0.5144886
vt 14.74276 -130.9386
vt -0.691045 0.6505912
vt -0.7183048 -0.4979206
vt -1.061717 0.6505912
vt -1.088977 -0.4979206
vt -11.44339 131.4418
vt -0.7006038 0.4785774
vt 11.44124 -131.2961
vt 0.6984378 -0.3265049
vt 0.7176437 -0.4978833
vt 0.6902978 0.6506264
vt 1.087148 -0.4978833
vt 1.059803 0.6506264
vt 0.6902979 0.6642901
vt -16.60076 130.648
vt 1.059803 0.6642902
vt -14.85758 131.072

vn -0.7635688 4.223609E-09 -0.3851461
vn -0.7537724 0.0003821741 -0.4112798
vn -0.7439762 0.000764344 -0.4374134
vn 0 0.001746722 -0.9996018
vn 0.7769991 0.0006003099 -0.3435411
vn 0.7702125 0.0003001569 -0.3645504
vn 0.7634259 3.800537E-09 -0.3855597
vn 0 0.01200982 -0.9809988
vn 0 -0.01202457 -0.9809517
vn -0.6873039 -0.009621391 -0.5346124
vn -0.3897677 -0.01235573 -0.8592125
vn 0 -0.0121663 -0.9804955
vn -0.6956783 0.0009455738 -0.5411263
vn -0.388158 0.01297736 -0.8578843
vn -0.6849105 0.01088893 -0.5327507
vn 0.3899221 -0.01298674 -0.8566779
vn 0.6871307 -0.01086099 -0.5287079
vn 0.6978776 0.0009383233 -0.536977
vn 0.6895369 0.00958675 -0.5305592
vn 0.3915501 0.012344 -0.858072

g VolumeLight
usemtl VolumetricLight
f 9/23/11 15/22/11 6/21/10
f 9/23/11 10/24/12 15/22/11
f 12/29/14 8/15/14 13/13/8
f 12/29/14 11/30/15 8/15/14
f 1/31/16 5/18/16 16/20/9
f 1/31/16 2/32/17 5/18/16
f 4/39/20 14/38/20 7/37/19
f 4/39/20 3/40/8 14/38/20
f 4/4/3 2/2/2 1/1/1
f 1/1/1 3/3/2 4/4/3
f 8/8/4 6/6/4 5/5/4
f 5/5/4 7/7/4 8/8/4
f 12/12/7 10/10/6 9/9/5
f 9/9/5 11/11/6 12/12/7
f 7/16/8 14/14/8 13/13/8
f 13/13/8 8/15/8 7/16/8
f 16/20/9 5/18/9 6/17/9
f 6/17/9 15/19/9 16/20/9
f 9/28/13 6/26/13 8/25/13
f 8/25/13 11/27/13 9/28/13
f 4/36/18 7/34/18 5/33/18
f 5/33/18 2/35/18 4/36/18

