# ProBuilder 4.5.2
# https://unity3d.com/unity/features/worldbuilding/probuilder
# 2/02/2024 7:13:51 PM

mtllib ./TropicalBigBody.mtl
o TropicalBigBody

g TropicalBigBody
v 1 -3 3
v -1 -3 3
v 1 3 3
v -1 3 3
v -1 -3 -3
v -1 3 -3
v 1 -3 -3
v 1 3 -3
v 0 -6 -3
v 0 -6 2
v 0 -3 -3
v 0 -3 2
v 2.414213 -3 -1.414214
v 1 -3 0
v 2.414213 -1 -1.414214
v 1 -1 0
v 0 3 -3
v 0 3 2
v 0 6 -3
v 0 6 2
v -2.414211 -3 -1.414217
v -1 -3 0
v -2.414211 -1 -1.414217
v -1 -1 0

vt 0.25 0
vt 0.1875 0
vt 0.25 0.1875
vt 0.1875 0.1875
vt 0.1875 1.721084E-06
vt 0 1.184642E-06
vt 0.1875 0.1875017
vt 0 0.1875012
vt 0.5 0
vt 0.4375 0
vt 0.5 0.1875
vt 0.4375 0.1875
vt 0.4375 3.024936E-06
vt 0.25 3.188848E-06
vt 0.25 0.1875032
vt 0.1875 0.375
vt 0.25 0.375
vt 0.3125 0.1875
vt 0.3125 0.3750002
vt 0.625 0.06249626
vt 0.78125 0.06249461
vt 0.625 0.1562462
vt 0.78125 0.1562446
vt 0.125 0.5625
vt 0.0625 0.5625
vt 0.125 0.625
vt 0.06250001 0.625
vt 0.625 0.3437456
vt 0.78125 0.3437479
vt 0.625 0.4374956
vt 0.78125 0.4374979
vt 0.0625 0.4375
vt 0.125 0.4375
vt 0.0625 0.5
vt 0.125 0.5

vn 0 0 1
vn -1 0 0
vn 0 0 -1
vn 1 0 0
vn 0 1 0
vn 0 -1 0
vn 0.7071071 0 0.7071065
vn -0.7071083 0 0.7071052

usemtl TropicalBig
f 3/3/1 4/4/1 2/2/1 1/1/1
f 4/7/2 6/8/2 5/6/2 2/5/2
f 6/11/3 8/12/3 7/10/3 5/9/3
f 8/12/4 3/15/4 1/14/4 7/13/4
f 8/7/5 6/15/5 4/17/5 3/16/5
f 1/19/6 2/17/6 5/15/6 7/18/6
f 11/22/4 12/23/4 10/21/4 9/20/4
f 15/26/7 16/27/7 14/25/7 13/24/7
f 19/30/4 20/31/4 18/29/4 17/28/4
f 21/32/8 22/33/8 24/35/8 23/34/8

g TropicalBigTail
v 0 -3 -8
v 0 -3 -3
v 0 3 -8
v 0 3 -3

vt 0.65625 0.1562501
vt 0.8125 0.15625
vt 0.65625 0.3437501
vt 0.8125 0.3437501

vn 1 0 0

usemtl TropicalFlopper
f 27/38/9 28/39/9 26/37/9 25/36/9

