# ProBuilder 4.5.2
# https://unity3d.com/unity/features/worldbuilding/probuilder
# 2/02/2024 8:46:28 PM

mtllib ./TropicalSmallBody.mtl
o TropicalSmallBody

g TropicalSmallBody
v 1 -1 3
v -1 -1 3
v 1 2 3
v -1 2 3
v -1 -1 -3
v -1 2 -3
v 1 -1 -3
v 1 2 -3
v 2.414213 -1 -1.414214
v 1 -1 0
v 2.414213 1 -1.414214
v 1 1 0
v 0 2 -3
v 0 2 2
v 0 5 -3
v 0 5 2
v -2.414211 -1 -1.414217
v -1 -1 0
v -2.414211 1 -1.414217
v -1 1 0

vt 0.25 0.7187498
vt 0.1875 0.7187502
vt 0.25 0.8124998
vt 0.1875 0.8125002
vt 0 0.71875
vt 0.1875 0.8125
vt 0 0.8125
vt 0.5 0.71875
vt 0.4375 0.71875
vt 0.5 0.8125
vt 0.4375 0.8125
vt 0.25 0.8125
vt 0.25 0.8125001
vt 0.1875 0.8125001
vt 0.25 1
vt 0.1875 1
vt 0.3125 0.8125
vt 0.3125 1
vt 0.125 0.5625
vt 0.0625 0.5625
vt 0.125 0.625
vt 0.0625 0.625
vt 0.6875 0.875
vt 0.53125 0.875
vt 0.6875 0.96875
vt 0.53125 0.96875
vt 0.0625 0.4374998
vt 0.125 0.4375004
vt 0.0625 0.5000001
vt 0.125 0.5000007

vn 0 0 1
vn -1 0 0
vn 0 0 -1
vn 1 0 0
vn 0 1 0
vn 0 -1 0
vn 0.7071071 0 0.7071065
vn -0.7071083 0 0.7071052

usemtl TropicalSmall
f 3/3/1 4/4/1 2/2/1 1/1/1
f 4/6/2 6/7/2 5/5/2 2/2/2
f 6/10/3 8/11/3 7/9/3 5/8/3
f 8/11/4 3/12/4 1/1/4 7/9/4
f 8/15/5 6/16/5 4/14/5 3/13/5
f 1/18/6 2/15/6 5/12/6 7/17/6
f 11/21/7 12/22/7 10/20/7 9/19/7
f 15/25/4 16/26/4 14/24/4 13/23/4
f 17/27/8 18/28/8 20/30/8 19/29/8

g TropicalSmallTail
v 0 -1 -7
v 0 -1 -3
v 0 2 -7
v 0 2 -3

vt 1 0.90625
vt 0.8750001 0.90625
vt 1 1
vt 0.8750001 1

vn 1 0 0

usemtl TropicalSmall
f 23/33/9 24/34/9 22/32/9 21/31/9

